<svg width="13" height="11" viewBox="0 0 13 11" fill="none" xmlns="http://www.w3.org/2000/svg">
<path d="M4.1708 10.86C3.89604 10.86 3.62226 10.7471 3.42116 10.5256L0.263128 7.04778C0.0930395 6.86074 0 6.61893 0 6.36695V4.07584C0 3.65377 0.254407 3.28258 0.648372 3.1309C1.04234 2.97971 1.47992 3.08196 1.7634 3.395L4.13882 6.01029C4.1553 6.02774 4.18243 6.02968 4.20036 6.01417L10.9138 0.246666C11.2171 -0.0145239 11.6334 -0.0736429 11.9963 0.0949919C12.3607 0.262173 12.587 0.61495 12.587 1.0157V3.48513C12.587 3.78073 12.4581 4.06082 12.2338 4.25368L4.83178 10.6133C4.63891 10.7786 4.40437 10.86 4.1708 10.86Z" fill="#F7F7F7"/>
</svg>
